<svg xmlns="http://www.w3.org/2000/svg" viewBox="0 0 48 48" xmlns:xlink="http://www.w3.org/1999/xlink" xml:space="preserve" width="100%" height="100%"><path xmlns="http://www.w3.org/2000/svg" d="M24 4c11.046 0 20 8.954 20 20s-8.954 20-20 20S4 35.046 4 24 12.954 4 24 4m-8 22-7.876.002A16.01 16.01 0 0 0 22 39.876V32a6 6 0 0 1-6-6m23.876.002L32 26a6 6 0 0 1-6 6l.002 7.876a16.01 16.01 0 0 0 13.874-13.874M24 8A16 16 0 0 0 8.124 22H16a2 2 0 0 1 2-2h12a2 2 0 0 1 2 2h7.876A16 16 0 0 0 24 8"></path></svg>